<svg id="Layer_1" data-name="Layer 1" xmlns="http://www.w3.org/2000/svg" xmlns:xlink="http://www.w3.org/1999/xlink" viewBox="0 0 361.9905 81.81">
  <defs>
    <linearGradient id="linear-gradient" x1="39.4106" y1="91.8331" x2="82.9606" y2="34.1031" gradientTransform="matrix(1, 0, 0, -1, 0, 124)" gradientUnits="userSpaceOnUse">
      <stop offset="0" stop-color="#beff00"/>
      <stop offset="1" stop-color="#6cc24a"/>
    </linearGradient>
    <linearGradient id="linear-gradient-2" x1="20.076" y1="77.2421" x2="63.626" y2="19.5221" xlink:href="#linear-gradient"/>
    <linearGradient id="linear-gradient-3" x1="42.2277" y1="93.9533" x2="85.7677" y2="36.2333" xlink:href="#linear-gradient"/>
    <linearGradient id="linear-gradient-4" x1="81.5274" y1="96.4136" x2="98.2374" y2="62.4937" gradientTransform="matrix(1, 0, 0, -1, 0, 124)" gradientUnits="userSpaceOnUse">
      <stop offset="0" stop-color="#ffb400"/>
      <stop offset="0.34" stop-color="#f8d118"/>
      <stop offset="0.74" stop-color="#f0f032"/>
    </linearGradient>
  </defs>
  <path d="M121.14,41.14H125v17.6h10.92V62h-14.8Z" transform="translate(-27.124 -18.71)" fill="#888b8d"/>
  <path d="M152.17,42a6.89,6.89,0,0,1,3.09,2.56,7.86,7.86,0,0,1,0,7.92,6.7993,6.7993,0,0,1-3.09,2.58,11.5,11.5,0,0,1-4.73.9h-4.71v6h-3.88V41.14h8.59A11.5,11.5,0,0,1,152.17,42Zm-1.06,9.6a4.25,4.25,0,0,0,.131-6.009q-.0641-.0669-.131-.131a6,6,0,0,0-3.85-1.08h-4.53v8.3h4.53a6,6,0,0,0,3.85-1.04Z" transform="translate(-27.124 -18.71)" fill="#888b8d"/>
  <path d="M162.24,61.64a9.82,9.82,0,0,1-3.56-1.82l1.34-3a10.4188,10.4188,0,0,0,3.15,1.66,11.3614,11.3614,0,0,0,3.74.64,6.57,6.57,0,0,0,3.48-.74,2.28,2.28,0,0,0,1.15-2,1.91,1.91,0,0,0-.65-1.48,4.45,4.45,0,0,0-1.62-.91c-.66-.22-1.55-.47-2.69-.75a29.4849,29.4849,0,0,1-3.86-1.13,6.4294,6.4294,0,0,1-2.54-1.77,4.83,4.83,0,0,1-1.06-3.27,5.63,5.63,0,0,1,.94-3.15,6.34,6.34,0,0,1,2.84-2.25,11.4217,11.4217,0,0,1,4.64-.84,15,15,0,0,1,3.76.48,10.6673,10.6673,0,0,1,3.19,1.37l-1.22,3a12.0715,12.0715,0,0,0-2.87-1.23,10.63,10.63,0,0,0-2.89-.42,6,6,0,0,0-3.42.78A2.41,2.41,0,0,0,163,46.9a1.88,1.88,0,0,0,.64,1.46,4.6389,4.6389,0,0,0,1.63.9c.66.22,1.55.46,2.69.74a28.5407,28.5407,0,0,1,3.82,1.12,6.59,6.59,0,0,1,2.55,1.78,4.69,4.69,0,0,1,1,3.22,5.47,5.47,0,0,1-.94,3.13,6.3294,6.3294,0,0,1-2.84,2.24,11.5888,11.5888,0,0,1-4.66.83A15.8473,15.8473,0,0,1,162.24,61.64Z" transform="translate(-27.124 -18.71)" fill="#888b8d"/>
  <path d="M198.44,62V48.15l-6.86,11.46h-1.73L183,48.36V62h-3.71V41.14h3.2L190.74,55l8.15-13.84h3.19V62.05Z" transform="translate(-27.124 -18.71)" fill="#888b8d"/>
  <path d="M218.26,61.64a9.82,9.82,0,0,1-3.56-1.82l1.34-3a10.66,10.66,0,0,0,3.15,1.66,11.3614,11.3614,0,0,0,3.74.64,6.5506,6.5506,0,0,0,3.48-.74,2.26,2.26,0,0,0,1.15-2,1.9,1.9,0,0,0-.64-1.48,4.5022,4.5022,0,0,0-1.63-.91c-.66-.22-1.55-.47-2.68-.75a29.6858,29.6858,0,0,1-3.87-1.13,6.39,6.39,0,0,1-2.53-1.77,4.78,4.78,0,0,1-1.06-3.27,5.55,5.55,0,0,1,.94-3.15,6.31,6.31,0,0,1,2.83-2.25,11.4214,11.4214,0,0,1,4.64-.84,14.9115,14.9115,0,0,1,3.76.48,10.56,10.56,0,0,1,3.19,1.37l-1.22,3a12.17,12.17,0,0,0-2.86-1.23,10.6988,10.6988,0,0,0-2.9-.42,6,6,0,0,0-3.41.78A2.38,2.38,0,0,0,219,46.9a1.85,1.85,0,0,0,.64,1.46,4.6794,4.6794,0,0,0,1.62.9c.66.22,1.56.46,2.69.74a28.545,28.545,0,0,1,3.82,1.12,6.59,6.59,0,0,1,2.55,1.78,4.65,4.65,0,0,1,1.06,3.22,5.47,5.47,0,0,1-.94,3.13,6.42,6.42,0,0,1-2.85,2.24,11.5609,11.5609,0,0,1-4.66.83A15.9,15.9,0,0,1,218.26,61.64Z" transform="translate(-27.124 -18.71)" fill="#888b8d"/>
  <path d="M250,55.25H237.46A4.33,4.33,0,0,0,239.18,58a5.61,5.61,0,0,0,3.45,1A5.76,5.76,0,0,0,247,57.34l2,2.3a6.68,6.68,0,0,1-2.71,1.94,10.72,10.72,0,0,1-8.33-.39,7.49,7.49,0,0,1-3.09-2.91,8.26,8.26,0,0,1-1.08-4.22,8.3793,8.3793,0,0,1,1-4.19A7.61,7.61,0,0,1,237.73,47,8.57,8.57,0,0,1,242,45.91a8.41,8.41,0,0,1,4.16,1,7.34,7.34,0,0,1,2.87,2.9,8.83,8.83,0,0,1,1,4.31C250,54.41,250,54.78,250,55.25Zm-11-5.29a4.4,4.4,0,0,0-1.5,2.82h9A4.4,4.4,0,0,0,245,50a4.86,4.86,0,0,0-6.07,0Z" transform="translate(-27.124 -18.71)" fill="#888b8d"/>
  <path d="M267.34,47.67a6.94,6.94,0,0,1,1.82,5.23V62h-3.73V53.37a4.43,4.43,0,0,0-1-3.14,3.63,3.63,0,0,0-2.81-1.06,4.33,4.33,0,0,0-3.25,1.23A5,5,0,0,0,257.2,54v8h-3.73V46.09H257v2.06a5.9016,5.9016,0,0,1,2.33-1.67,8.3193,8.3193,0,0,1,3.16-.57A6.66,6.66,0,0,1,267.34,47.67Z" transform="translate(-27.124 -18.71)" fill="#888b8d"/>
  <path d="M273.72,42.83a2.2,2.2,0,0,1-.09-3.11c.0291-.0308.0591-.0609.09-.09a2.41,2.41,0,0,1,1.7-.64,2.51,2.51,0,0,1,1.7.61,2,2,0,0,1,.68,1.54,2.25,2.25,0,0,1-.67,1.66,2.34,2.34,0,0,1-1.71.67A2.41,2.41,0,0,1,273.72,42.83Zm-.18,3.26h3.73V62h-3.73Z" transform="translate(-27.124 -18.71)" fill="#888b8d"/>
  <path d="M284.79,61.19a7.58,7.58,0,0,1-3-2.91,8.69,8.69,0,0,1,0-8.43,7.73,7.73,0,0,1,3-2.89,9.62,9.62,0,0,1,8.74,0,7.73,7.73,0,0,1,3,2.89,8.69,8.69,0,0,1,0,8.43,7.58,7.58,0,0,1-3,2.91A9.62,9.62,0,0,1,284.79,61.19Zm7.76-3.52a5.53,5.53,0,0,0,0-7.22,4.59,4.59,0,0,0-3.41-1.37,4.51,4.51,0,0,0-3.38,1.37,5.56,5.56,0,0,0,0,7.22A4.47,4.47,0,0,0,289.14,59a4.55,4.55,0,0,0,3.41-1.33Z" transform="translate(-27.124 -18.71)" fill="#888b8d"/>
  <path d="M310.31,45.91v3.55a5.7255,5.7255,0,0,0-.86-.08A4.54,4.54,0,0,0,306,50.64a5.1,5.1,0,0,0-1.22,3.66V62h-3.73V46.09h3.55v2.33Q306.26,45.92,310.31,45.91Z" transform="translate(-27.124 -18.71)" fill="#888b8d"/>
  <path d="M326.65,60.94a10.2594,10.2594,0,0,1-4-3.84,11.2,11.2,0,0,1,0-11,10.29,10.29,0,0,1,4-3.83,11.69,11.69,0,0,1,5.71-1.39,11.8293,11.8293,0,0,1,4.68.9,9.41,9.41,0,0,1,3.58,2.59l-2.5,2.36a7.31,7.31,0,0,0-5.58-2.45,7.89,7.89,0,0,0-3.85.94,6.88,6.88,0,0,0-2.66,2.61,8,8,0,0,0,0,7.58A6.74,6.74,0,0,0,328.72,58a7.79,7.79,0,0,0,3.85.94,7.26,7.26,0,0,0,5.58-2.47l2.5,2.38a9.47,9.47,0,0,1-3.59,2.6,11.9992,11.9992,0,0,1-4.7.89A11.79,11.79,0,0,1,326.65,60.94Z" transform="translate(-27.124 -18.71)" fill="#888b8d"/>
  <path d="M355.63,47.6a6.53,6.53,0,0,1,1.87,5.09V62H354V60.09a4.32,4.32,0,0,1-2,1.59,7.57,7.57,0,0,1-3.06.56,7.4694,7.4694,0,0,1-3.13-.62,4.73,4.73,0,0,1-2.07-1.7,4.27,4.27,0,0,1-.73-2.46A4.21,4.21,0,0,1,344.62,54a7.8731,7.8731,0,0,1,5-1.3h4.12v-.24a3.29,3.29,0,0,0-1-2.57,4.37,4.37,0,0,0-3-.89,8.4782,8.4782,0,0,0-2.64.42A6.31,6.31,0,0,0,345,50.6l-1.46-2.72a9.2293,9.2293,0,0,1,3-1.46,13.29,13.29,0,0,1,3.73-.51A7.78,7.78,0,0,1,355.63,47.6Zm-3.4,11.28A3.49,3.49,0,0,0,353.77,57V55.19h-3.85c-2.15,0-3.22.71-3.22,2.12a1.87,1.87,0,0,0,.8,1.61,3.68,3.68,0,0,0,2.24.6A4.81,4.81,0,0,0,352.23,58.88Z" transform="translate(-27.124 -18.71)" fill="#888b8d"/>
  <path d="M371.18,45.91v3.55a5.7273,5.7273,0,0,0-.87-.08,4.53,4.53,0,0,0-3.4,1.26,5.1,5.1,0,0,0-1.22,3.66V62H362V46.09h3.55v2.33Q367.12,45.92,371.18,45.91Z" transform="translate(-27.124 -18.71)" fill="#888b8d"/>
  <path d="M389.07,55.25h-12.5A4.29,4.29,0,0,0,378.29,58a5.58,5.58,0,0,0,3.44,1,5.79,5.79,0,0,0,4.33-1.73l2,2.3a6.7207,6.7207,0,0,1-2.72,1.94,10.69,10.69,0,0,1-8.32-.39,7.4894,7.4894,0,0,1-3.09-2.91,8.17,8.17,0,0,1-1.09-4.22,8.29,8.29,0,0,1,1.06-4.19,7.6094,7.6094,0,0,1,2.94-2.8,8.52,8.52,0,0,1,4.24-1.05,8.41,8.41,0,0,1,4.16,1,7.32,7.32,0,0,1,2.86,2.9,8.721,8.721,0,0,1,1,4.31A6.0686,6.0686,0,0,1,389.07,55.25Zm-11-5.29a4.41,4.41,0,0,0-1.51,2.82h9A4.39,4.39,0,0,0,384.12,50a4.86,4.86,0,0,0-6.07,0Z" transform="translate(-27.124 -18.71)" fill="#888b8d"/>
  <path d="M146,78a2.7,2.7,0,0,1-2.61,2.46,18.641,18.641,0,0,1,1.94,4.1,4.0027,4.0027,0,0,1-1.2,0,17.63,17.63,0,0,0-2-4h-1.82l-.49,4a3.76,3.76,0,0,1-1.16,0l1.23-10h2.57c2.41,0,3.84.69,3.58,2.65Zm-1.08-.55c.24-1.62-.94-1.86-2.4-1.86H141l-.48,4h1.68c1.38,0,2.54-.24,2.7-1.76Z" transform="translate(-27.124 -18.71)" fill="#6cc24a"/>
  <path d="M153.05,81.12c-1.16.06-3.35.08-4.68,0l-.14,1.08c-.16,1.32.69,1.5,1.88,1.5a10.83,10.83,0,0,0,2.31-.24,3.4,3.4,0,0,1-.12,1,11.5877,11.5877,0,0,1-2.39.27c-1.92,0-3.06-.62-2.85-2.31l.42-3.36c.21-1.73,1.37-2.31,3.08-2.31s2.92.64,2.71,2.38Zm-.92-1.84c.15-1.35-.63-1.53-1.57-1.53s-1.8.18-2,1.53l-.13,1.09,1.11-.07H152Z" transform="translate(-27.124 -18.71)" fill="#6cc24a"/>
  <path d="M159.46,83.51h-.06c-.35.9-1.29,1.23-2.49,1.23-1.49,0-2.55-.6-2.36-2.21L155,79a2.35,2.35,0,0,1,2.4779-2.2147q.0813.0045.1621.0147c1.32,0,2.27.33,2.43,1.23h.08l.06-1.23.37-3a3.5694,3.5694,0,0,1,1.13,0l-1.34,10.88a2.421,2.421,0,0,1-.93,0Zm.46-4.41c-.22-1-.58-1.35-1.9-1.35-1,0-1.76.16-1.94,1.63l-.34,2.75c-.17,1.41.61,1.59,1.57,1.59a2,2,0,0,0,2.21-1.32Z" transform="translate(-27.124 -18.71)" fill="#6cc24a"/>
  <path d="M168.72,81.12c-1.16.06-3.35.08-4.68,0l-.14,1.08c-.16,1.32.69,1.5,1.88,1.5a10.83,10.83,0,0,0,2.31-.24,3.4,3.4,0,0,1-.12,1,11.5877,11.5877,0,0,1-2.39.27c-1.92,0-3.06-.62-2.85-2.31l.42-3.36c.21-1.73,1.37-2.31,3.08-2.31s2.92.64,2.71,2.38Zm-.92-1.84c.15-1.35-.63-1.53-1.57-1.53s-1.8.18-2,1.53l-.13,1.09,1.11-.07h2.46Z" transform="translate(-27.124 -18.71)" fill="#6cc24a"/>
  <path d="M175.87,77.88h-3.49l-1.23,10a3.5694,3.5694,0,0,1-1.13,0l1.22-10H170a2.189,2.189,0,0,1,.1-.87l1.25-.07.12-1a2.25,2.25,0,0,1,2.1859-2.3124q.0921-.0025.1841.0024a6.6064,6.6064,0,0,1,1.36.13,2.3007,2.3007,0,0,1-.12.93,4.8192,4.8192,0,0,0-1-.1c-.66,0-1.37.13-1.53,1.54l-.09.75h4.63l-.94,7.64a3.5694,3.5694,0,0,1-1.13,0Zm1.52-2.62a4.3628,4.3628,0,0,1-1.25,0l.11-1.17a4.8625,4.8625,0,0,1,1.32,0Z" transform="translate(-27.124 -18.71)" fill="#6cc24a"/>
  <path d="M184.05,79.37c.18-1.46-.6-1.62-1.54-1.62a2,2,0,0,0-2.24,1.35l-.66,5.46a3.6325,3.6325,0,0,1-1.14,0l.95-7.65a2.429,2.429,0,0,1,.93,0v1.08h.07c.33-.9,1.29-1.23,2.49-1.23,1.5,0,2.55.57,2.36,2.19l-.69,5.61a3.6325,3.6325,0,0,1-1.14,0Z" transform="translate(-27.124 -18.71)" fill="#6cc24a"/>
  <path d="M187.71,77a3.0708,3.0708,0,0,1,1.13,0l-.93,7.61a3.6325,3.6325,0,0,1-1.14,0Zm1.4-1.69a4.3628,4.3628,0,0,1-1.25,0l.11-1.17a4.8625,4.8625,0,0,1,1.32,0Z" transform="translate(-27.124 -18.71)" fill="#6cc24a"/>
  <path d="M195.82,79.37c.18-1.46-.6-1.62-1.55-1.62A2,2,0,0,0,192,79.1l-.66,5.46a3.6325,3.6325,0,0,1-1.14,0l.94-7.65a2.429,2.429,0,0,1,.93,0v1.08h.08c.33-.9,1.29-1.23,2.49-1.23,1.5,0,2.55.57,2.35,2.19l-.69,5.61a3.6325,3.6325,0,0,1-1.14,0Z" transform="translate(-27.124 -18.71)" fill="#6cc24a"/>
  <path d="M203.25,84.39l.23-1.15h-.06c-.35.9-1.29,1.23-2.51,1.23-1.48,0-2.53-.6-2.34-2.21L199,79a2.35,2.35,0,0,1,2.4779-2.2147q.0813.0045.1621.0147c1.32,0,2.27.33,2.43,1.23h.08l.24-1.08a2.421,2.421,0,0,1,.93,0l-1,8.37c-.22,1.78-1.27,2.58-3.4,2.58a12.3174,12.3174,0,0,1-2.49-.24,3.56,3.56,0,0,1,.24-1,12.506,12.506,0,0,0,2.28.22c1.23,0,2.08-.28,2.25-1.57Zm.66-5.29c-.24-1-.58-1.35-1.92-1.35-.94,0-1.74.16-1.92,1.63l-.31,2.48c-.17,1.39.6,1.59,1.59,1.59a2,2,0,0,0,2.19-1.32Z" transform="translate(-27.124 -18.71)" fill="#6cc24a"/>
  <path d="M215.4,82.31c-.22,1.77-1.38,2.43-3.33,2.43a13.9335,13.9335,0,0,1-2.71-.24,2.8,2.8,0,0,1,.12-1,17.9361,17.9361,0,0,0,2.61.19c1.11,0,2-.19,2.2-1.53l.08-.64c.12-.92-.24-1-1-1.28l-1.79-.63c-1.06-.37-1.56-.85-1.42-2l.1-.9c.23-1.79,1.58-2.42,3.48-2.42a10.3038,10.3038,0,0,1,2.54.27,2.23,2.23,0,0,1-.12,1,13.0587,13.0587,0,0,0-2.4-.21c-1.23,0-2.22.21-2.37,1.51l-.06.57c-.09.81.24,1,1,1.26l1.8.65c1.07.37,1.56.73,1.4,2Z" transform="translate(-27.124 -18.71)" fill="#6cc24a"/>
  <path d="M221.68,83.51h-.07c-.33.9-1.29,1.23-2.49,1.23-1.49,0-2.54-.6-2.34-2.21l.45-3.57a2.33,2.33,0,0,1,2.4389-2.2158q.0907.0043.1811.0158c1.34,0,2.28.33,2.43,1.23h.08l.16-1.1a2.5017,2.5017,0,0,1,1,0l-1,7.74a2.9018,2.9018,0,0,1-.93,0Zm.45-4.41c-.22-1-.57-1.35-1.89-1.35-1,0-1.78.16-2,1.63L218,82.13c-.16,1.41.58,1.59,1.56,1.59a2,2,0,0,0,2.21-1.32Z" transform="translate(-27.124 -18.71)" fill="#6cc24a"/>
  <path d="M226,77.88h-1.23a2.2,2.2,0,0,1,.11-.87l1.24-.07.12-1c.23-1.83,1.32-2.31,2.37-2.31a6.7823,6.7823,0,0,1,1.37.13,2.7121,2.7121,0,0,1-.12.93,4.9171,4.9171,0,0,0-1-.1c-.66,0-1.36.13-1.53,1.54l-.09.75h2.1a1.999,1.999,0,0,1-.12,1h-2.1l-1.23,10a3.5127,3.5127,0,0,1-1.12,0Z" transform="translate(-27.124 -18.71)" fill="#6cc24a"/>
  <path d="M235.64,81.12c-1.15.06-3.34.08-4.68,0l-.13,1.08c-.17,1.32.69,1.5,1.88,1.5a10.737,10.737,0,0,0,2.3-.24,2.83,2.83,0,0,1-.12,1,11.4307,11.4307,0,0,1-2.38.27c-1.92,0-3.06-.62-2.85-2.31l.42-3.36c.21-1.73,1.37-2.31,3.08-2.31s2.92.64,2.71,2.38Zm-.91-1.84c.15-1.35-.63-1.53-1.57-1.53s-1.8.18-2,1.53l-.14,1.09,1.11-.07h2.46Z" transform="translate(-27.124 -18.71)" fill="#6cc24a"/>
  <path d="M238.17,77.94h-1.26a2.4306,2.4306,0,0,1,.12-.88l1.26-.06.26-2.07a3.6325,3.6325,0,0,1,1.14,0l-.26,2h2.33a2.66,2.66,0,0,1-.11,1h-2.34l-.51,4.16c-.18,1.5.56,1.62,1.19,1.62a4.7075,4.7075,0,0,0,1-.09,2.9408,2.9408,0,0,1-.12,1,5.635,5.635,0,0,1-1.2.14c-1.15,0-2.23-.48-2-2.31Z" transform="translate(-27.124 -18.71)" fill="#6cc24a"/>
  <path d="M247,84.39l.23-1.15h-.06c-.35.9-1.31,1.23-2.49,1.23-1.46,0-2.52-.6-2.31-2.21L243,77a3.5127,3.5127,0,0,1,1.12,0l-.6,4.91c-.16,1.38.6,1.56,1.55,1.56a2,2,0,0,0,2.19-1.29L247.9,77a3.6286,3.6286,0,0,1,1.1,0l-1,8.33c-.23,1.78-1.29,2.58-3.41,2.58a12.0957,12.0957,0,0,1-2.46-.24,2.3,2.3,0,0,1,.23-1,10.7615,10.7615,0,0,0,2.26.22c1.23,0,2.07-.28,2.24-1.57Z" transform="translate(-27.124 -18.71)" fill="#6cc24a"/>
  <path d="M258.72,78.47l-2.52,6.09a4.6373,4.6373,0,0,1-1.29,0L253.5,77a3.23,3.23,0,0,1,1.16,0l1.06,6.36,2.6-6.36a3.2809,3.2809,0,0,1,1.17,0l1.06,6.45L263.21,77a3.1706,3.1706,0,0,1,1.15,0l-3.28,7.61a4.5661,4.5661,0,0,1-1.28,0Z" transform="translate(-27.124 -18.71)" fill="#6cc24a"/>
  <path d="M265.66,77a3,3,0,0,1,1.12,0l-.93,7.61a3.6325,3.6325,0,0,1-1.14,0Zm1.39-1.69a4.2936,4.2936,0,0,1-1.24,0l.1-1.17a4.8625,4.8625,0,0,1,1.32,0Z" transform="translate(-27.124 -18.71)" fill="#6cc24a"/>
  <path d="M269.19,77.94h-1.26a2.4306,2.4306,0,0,1,.12-.88l1.26-.06.26-2.07a3.6325,3.6325,0,0,1,1.14,0l-.26,2h2.33a2.6583,2.6583,0,0,1-.11,1h-2.34l-.51,4.16c-.18,1.5.56,1.62,1.19,1.62a4.7075,4.7075,0,0,0,1-.09,2.9408,2.9408,0,0,1-.12,1,5.635,5.635,0,0,1-1.2.14c-1.15,0-2.23-.48-2-2.31Z" transform="translate(-27.124 -18.71)" fill="#6cc24a"/>
  <path d="M278.75,79.37c.18-1.46-.6-1.62-1.55-1.62A2,2,0,0,0,275,79.1l-.66,5.46a3.6325,3.6325,0,0,1-1.14,0l1.33-10.8a2.69,2.69,0,0,1,1.13,0l-.38,3L275,78h.08c.33-.9,1.29-1.23,2.49-1.23,1.5,0,2.55.57,2.35,2.19l-.69,5.61a3.6325,3.6325,0,0,1-1.14,0Z" transform="translate(-27.124 -18.71)" fill="#6cc24a"/>
  <path d="M290,81.65h-3.8l-1.32,2.91a3.89,3.89,0,0,1-1.18,0l4.69-10a3.6325,3.6325,0,0,1,1.14,0l2.24,10a4.1569,4.1569,0,0,1-1.22,0ZM288.77,76l-2.13,4.73h3.1Z" transform="translate(-27.124 -18.71)" fill="#6cc24a"/>
  <path d="M294.15,74.57a3.76,3.76,0,0,1,1.16,0l-1.23,10a3.76,3.76,0,0,1-1.16,0Z" transform="translate(-27.124 -18.71)" fill="#6cc24a"/>
  <path d="M302.49,75.54H299.6a2.3208,2.3208,0,0,1,.12-1h6.94a2.6989,2.6989,0,0,1-.12,1h-2.89l-1.1,9a3.7022,3.7022,0,0,1-1.15,0Z" transform="translate(-27.124 -18.71)" fill="#6cc24a"/>
  <path d="M311.76,81.12c-1.16.06-3.35.08-4.68,0l-.14,1.08c-.16,1.32.69,1.5,1.88,1.5a10.83,10.83,0,0,0,2.31-.24,3.4,3.4,0,0,1-.12,1,11.5877,11.5877,0,0,1-2.39.27c-1.92,0-3.06-.62-2.85-2.31l.42-3.36c.21-1.73,1.37-2.31,3.08-2.31s2.92.64,2.71,2.38Zm-.92-1.84c.15-1.35-.63-1.53-1.57-1.53s-1.8.18-2,1.53l-.13,1.09,1.11-.07h2.46Z" transform="translate(-27.124 -18.71)" fill="#6cc24a"/>
  <path d="M313.69,79.05c.21-1.71,1.31-2.29,3-2.29A10.9091,10.9091,0,0,1,319,77a2.33,2.33,0,0,1-.13,1,9.532,9.532,0,0,0-2-.19c-.95,0-1.83.18-2,1.53l-.36,2.94c-.16,1.33.71,1.5,1.7,1.5a8.5459,8.5459,0,0,0,2-.23,2.9977,2.9977,0,0,1-.12,1,8.8025,8.8025,0,0,1-2.08.27c-1.82,0-2.9-.62-2.69-2.28Z" transform="translate(-27.124 -18.71)" fill="#6cc24a"/>
  <path d="M325,79.37c.18-1.46-.6-1.62-1.54-1.62a2,2,0,0,0-2.24,1.35l-.66,5.46a3.6325,3.6325,0,0,1-1.14,0l1.34-10.8a2.64,2.64,0,0,1,1.12,0l-.37,3-.2,1.24h.07c.33-.9,1.29-1.23,2.49-1.23,1.5,0,2.55.57,2.36,2.19l-.69,5.61a3.6325,3.6325,0,0,1-1.14,0Z" transform="translate(-27.124 -18.71)" fill="#6cc24a"/>
  <path d="M333.36,79.37c.18-1.46-.6-1.62-1.55-1.62a2,2,0,0,0-2.23,1.35l-.66,5.46a3.6325,3.6325,0,0,1-1.14,0l.94-7.65a2.421,2.421,0,0,1,.93,0v1.08h.08c.33-.9,1.29-1.23,2.49-1.23,1.5,0,2.55.57,2.35,2.19l-.69,5.61a3.6325,3.6325,0,0,1-1.14,0Z" transform="translate(-27.124 -18.71)" fill="#6cc24a"/>
  <path d="M342.13,82.44c-.21,1.68-1.39,2.3-3.15,2.3s-3.09-.62-2.88-2.3l.42-3.37c.21-1.73,1.43-2.31,3.15-2.31,1.91,0,3.09.58,2.88,2.31Zm-.75-3.16c.17-1.35-.67-1.53-1.71-1.53s-1.87.18-2,1.53l-.36,2.94c-.16,1.33.69,1.5,1.74,1.5s1.86-.17,2-1.5Z" transform="translate(-27.124 -18.71)" fill="#6cc24a"/>
  <path d="M345.32,73.76a2.64,2.64,0,0,1,1.12,0l-1.32,10.8a3.6325,3.6325,0,0,1-1.14,0Z" transform="translate(-27.124 -18.71)" fill="#6cc24a"/>
  <path d="M353.52,82.44c-.21,1.68-1.39,2.3-3.15,2.3s-3.09-.62-2.88-2.3l.42-3.37c.21-1.73,1.43-2.31,3.15-2.31,1.91,0,3.09.58,2.88,2.31Zm-.75-3.16c.17-1.35-.67-1.53-1.71-1.53s-1.87.18-2,1.53l-.36,2.94c-.16,1.33.69,1.5,1.74,1.5s1.86-.17,2-1.5Z" transform="translate(-27.124 -18.71)" fill="#6cc24a"/>
  <path d="M360.08,84.39l.23-1.15h-.06c-.35.9-1.29,1.23-2.51,1.23-1.48,0-2.53-.6-2.34-2.21l.42-3.3a2.35,2.35,0,0,1,2.4779-2.2147q.0813.0045.1621.0147c1.32,0,2.27.33,2.43,1.23H361l.24-1.08a2.421,2.421,0,0,1,.93,0l-1,8.37c-.22,1.78-1.27,2.58-3.4,2.58a12.3174,12.3174,0,0,1-2.49-.24,3.56,3.56,0,0,1,.24-1,12.506,12.506,0,0,0,2.28.22c1.23,0,2.08-.28,2.25-1.57Zm.66-5.29c-.24-1-.58-1.35-1.92-1.35-.94,0-1.74.16-1.92,1.63l-.31,2.48c-.17,1.39.6,1.59,1.59,1.59a2,2,0,0,0,2.19-1.32Z" transform="translate(-27.124 -18.71)" fill="#6cc24a"/>
  <path d="M368.32,84.39l.22-1.15h-.06c-.34.9-1.3,1.23-2.48,1.23-1.46,0-2.53-.6-2.32-2.21l.66-5.31a3.5694,3.5694,0,0,1,1.13,0l-.6,4.91c-.16,1.38.6,1.56,1.54,1.56,1.31,0,1.73-.33,2.19-1.29l.65-5.18a3.6325,3.6325,0,0,1,1.14,0l-1,8.33c-.22,1.78-1.29,2.58-3.4,2.58a11.9965,11.9965,0,0,1-2.46-.24,2.451,2.451,0,0,1,.22-1,10.9314,10.9314,0,0,0,2.27.22c1.23,0,2.07-.28,2.23-1.57Z" transform="translate(-27.124 -18.71)" fill="#6cc24a"/>
  <path d="M64,18.71V29.62a19.39,19.39,0,0,1-9.76,16.77l-17.39,10-9.09,5.26-.6.33V51.12a19.27,19.27,0,0,1,6.5-14.44A21.8,21.8,0,0,1,37.47,34c3.61-2.08,7.2-4.17,10.81-6.26L63.56,18.9Z" transform="translate(-27.124 -18.71)" fill="url(#linear-gradient)"/>
  <path d="M62.3,100.52l-.46-.23-18-10.4c-2.46-1.42-4.94-2.81-7.37-4.28a18.8,18.8,0,0,1-8.68-11.53,20.141,20.141,0,0,1-.65-5.94,5.85,5.85,0,0,1,6.0227-5.672l.0573.002a6.18,6.18,0,0,1,2.89.88c5.32,3.1,10.64,6.21,16,9.27a20.4,20.4,0,0,1,6.29,5.43,18.92,18.92,0,0,1,3.74,9.16,20.346,20.346,0,0,1,.18,2.46v10.51Z" transform="translate(-27.124 -18.71)" fill="url(#linear-gradient-2)"/>
  <path d="M64.87,100.52V89.69a19.2,19.2,0,0,1,5.58-13.62,18.2232,18.2232,0,0,1,4-3.09L91,63.38A5.74,5.74,0,0,1,96.7,63a5.44,5.44,0,0,1,3.3,4.83,19,19,0,0,1-3,11.7,19.43,19.43,0,0,1-6.73,6.36L75.89,94.17l-10.55,6.11Z" transform="translate(-27.124 -18.71)" fill="url(#linear-gradient-3)"/>
  <path d="M100,62l-.41-.2-9.16-5.25a19.45,19.45,0,0,1-8.06-8.63,18.07,18.07,0,0,1-1.83-7.17c-.07-2-.06-3.9-.07-5.86s0-3.87,0-5.81v-.51a2.9915,2.9915,0,0,1,.34.15c3.25,1.89,6.52,3.74,9.74,5.68a19.14,19.14,0,0,1,8.94,12.14,17.1389,17.1389,0,0,1,.52,4.17V61.65C100,61.77,100,61.86,100,62Z" transform="translate(-27.124 -18.71)" fill="url(#linear-gradient-4)"/>
</svg>
